<?xml version="1.0" encoding="UTF-8"?>
<svg id="Calque_1" data-name="Calque 1" xmlns="http://www.w3.org/2000/svg" version="1.1" viewBox="0 0 500 300">
  <defs>
    <style>
      .cls-1 {
        fill: #000;
        stroke-width: 0px;
      }
    </style>
  </defs>
  <path class="cls-1" d="M72.44,258.22c-3.08.51-5.95.76-8.61.76-11.81,0-20.08-3.93-24.82-11.81-3.66-6.01-5.53-15.32-5.61-27.93,0-3.47.12-8.55.37-15.24.25-7.02.37-12.1.37-15.23,0-10.75-.95-18.83-2.86-24.25-3.07-8.46-8.83-13.37-17.28-14.73,8.45-1.35,14.22-6.27,17.28-14.74,1.91-5.42,2.86-13.52,2.86-24.28,0-3.14-.12-8.22-.37-15.25-.25-6.69-.37-11.78-.37-15.25.08-12.63,1.95-21.95,5.61-27.96,4.74-7.88,13.01-11.82,24.82-11.82,2.66,0,5.53.25,8.61.76-14.26,3.81-21.47,16.65-21.63,38.51,0,3.98.21,9.83.62,17.54.41,8.05.62,13.85.62,17.41,0,10.42-1.16,18.22-3.48,23.39-3.07,6.69-8.5,10.59-16.29,11.69,7.79,1.1,13.22,5,16.29,11.68,2.32,5.25,3.48,13.07,3.48,23.49,0,3.55-.21,9.25-.62,17.07-.42,7.83-.62,13.73-.62,17.71.17,21.84,7.38,34.66,21.63,38.47Z"/>
  <path class="cls-1" d="M486,149.8c-8.45,1.35-14.22,6.26-17.28,14.73-1.91,5.42-2.86,13.5-2.86,24.25,0,3.13.12,8.21.37,15.23.25,6.69.37,11.77.37,15.24-.08,12.61-1.95,21.92-5.61,27.93-4.74,7.87-13.01,11.81-24.82,11.81-2.66,0-5.53-.25-8.61-.76,14.26-3.81,21.47-16.63,21.63-38.47,0-3.98-.21-9.88-.62-17.71-.42-7.83-.62-13.52-.62-17.07,0-10.41,1.16-18.24,3.48-23.49,3.07-6.68,8.5-10.58,16.29-11.68-7.79-1.1-13.22-5-16.29-11.69-2.32-5.17-3.48-12.97-3.48-23.39,0-3.56.21-9.36.62-17.41.41-7.71.62-13.56.62-17.54-.17-21.86-7.38-34.7-21.63-38.51,3.08-.51,5.94-.76,8.61-.76,11.81,0,20.08,3.94,24.82,11.82,3.66,6.02,5.53,15.34,5.61,27.96,0,3.47-.12,8.56-.37,15.25-.25,7.03-.37,12.12-.37,15.25,0,10.76.95,18.85,2.86,24.28,3.07,8.47,8.83,13.39,17.28,14.74Z"/>
  <polygon class="cls-1" points="302.47 41.02 302.47 191.08 197.92 88.28 197.86 88.28 197.86 88.07 244.82 88.07 244.82 40.79 95 40.79 95 88.07 141.16 88.07 141.16 88.28 141.09 88.28 141.09 259.5 197.92 259.5 197.92 155.13 302.47 258.98 359.31 258.98 359.31 41.02 302.47 41.02"/>
</svg>